<svg width="140" height="140" viewBox="0 0 140 140" fill="none" xmlns="http://www.w3.org/2000/svg">
    <rect width="140" height="140" rx="70" fill="white"/>
    <path d="M70.823 133.804C69.0894 133.804 67.4713 133.342 65.9689 132.533L50.5973 123.402C48.2858 122.131 49.4415 121.669 50.135 121.437C53.2555 120.397 53.8334 120.166 57.0695 118.317C57.4163 118.086 57.8786 118.201 58.2253 118.433L70.014 125.483C70.4763 125.714 71.0542 125.714 71.4009 125.483L117.516 98.7847C117.978 98.5535 118.209 98.0912 118.209 97.5133V44.233C118.209 43.6551 117.978 43.1928 117.516 42.9616L71.4009 16.3792C70.9386 16.1481 70.3607 16.1481 70.014 16.3792L23.8993 42.9616C23.437 43.1928 23.2059 43.7707 23.2059 44.233V97.5133C23.2059 97.9756 23.437 98.5535 23.8993 98.7847L36.4971 106.066C43.316 109.533 47.5923 105.488 47.5923 101.443V48.856C47.5923 48.1625 48.1702 47.4691 48.9792 47.4691H54.8736C55.5671 47.4691 56.2605 48.047 56.2605 48.856V101.443C56.2605 110.573 51.2907 115.89 42.6226 115.89C39.9643 115.89 37.884 115.89 31.9896 113L19.8542 106.066C16.8492 104.332 15 101.096 15 97.6289V44.3485C15 40.8813 16.8492 37.6452 19.8542 35.9115L65.9689 9.21354C68.8582 7.59549 72.7878 7.59549 75.6772 9.21354L121.792 35.9115C124.797 37.6452 126.646 40.8813 126.646 44.3485V97.6289C126.646 101.096 124.797 104.332 121.792 106.066L75.6772 132.764C74.1747 133.457 72.4411 133.804 70.823 133.804ZM85.0388 97.1666C64.8131 97.1666 60.6524 87.9205 60.6524 80.0614C60.6524 79.3679 61.2302 78.6745 62.0393 78.6745H68.0492C68.7427 78.6745 69.3205 79.1368 69.3205 79.8303C70.2451 85.9558 72.9034 88.9607 85.1544 88.9607C94.8628 88.9607 99.0235 86.7648 99.0235 81.5639C99.0235 78.5589 97.8677 76.363 82.7273 74.8605C70.1296 73.5892 62.2704 70.8154 62.2704 60.7603C62.2704 51.3987 70.1296 45.851 83.3052 45.851C98.0989 45.851 105.38 50.9364 106.305 62.0316C106.305 62.3783 106.189 62.7251 105.958 63.0718C105.727 63.3029 105.38 63.5341 105.033 63.5341H99.0235C98.4456 63.5341 97.8677 63.0718 97.7522 62.4939C96.3652 56.1372 92.7824 54.0569 83.3052 54.0569C72.6722 54.0569 71.4009 57.7553 71.4009 60.5291C71.4009 63.8808 72.9034 64.921 87.2348 66.7702C101.451 68.6194 108.154 71.2777 108.154 81.2172C108.038 91.3878 99.7169 97.1666 85.0388 97.1666Z" fill="#19AEF8"/>
    </svg>
